<?xml version="1.0" encoding="UTF-8"?>
<svg width="54px" height="55px" viewBox="0 0 54 55" version="1.1" xmlns="http://www.w3.org/2000/svg" xmlns:xlink="http://www.w3.org/1999/xlink">
    <!-- Generator: Sketch 45 (43475) - http://www.bohemiancoding.com/sketch -->
    <title>1498899230_seo_ic_web</title>
    <desc>Created with Sketch.</desc>
    <defs></defs>
    <g id="Page-1" stroke="none" stroke-width="1" fill="none" fill-rule="evenodd" stroke-linejoin="round">
        <g id="Artboard" transform="translate(-24.000000, -15.000000)" stroke="#FFFFFF" stroke-width="2">
            <g id="1498899230_seo_ic_web" transform="translate(25.000000, 16.000000)">
                <g id="Group" transform="translate(0.000000, 28.000000)">
                    <path d="M48,0 L0,0" id="Shape"></path>
                    <path d="M19,4 L19,9 C19,10.7 17.7,12 16,12 L16,12 L32,12 L32,12 C30.3,12 29,10.7 29,9 L29,4" id="Shape"></path>
                </g>
                <path d="M48,53 L46,53 C43.8,53 42,51.2 42,49 L42,42 C42,39.8 43.8,38 46,38 L48,38 C50.2,38 52,39.8 52,42 L52,49 C52,51.2 50.2,53 48,53 Z" id="Shape"></path>
                <path d="M47,41 L47,45" id="Shape"></path>
                <path d="M19,37 L6,37 C4.3,37 3,38.3 3,40 L3,46 C3,47.7 4.3,49 6,49 L34,49 C35.7,49 37,47.7 37,46 L37,38 C37,36.3 38.3,35 40,35 L44,35 C45.7,35 47,36.3 47,38 L47,38" id="Shape"></path>
                <g id="Group">
                    <path d="M29.8,7.7 L21,28" id="Shape"></path>
                    <path d="M19.7,7.1 L37,14.7" id="Shape"></path>
                    <path d="M10.7,15.2 L37.3,26.8" id="Shape"></path>
                    <path d="M29.8,7.7 C37.1,10.9 40.5,19.4 37.3,26.8 C37.1,27.2 36.9,27.6 36.7,28" id="Shape"></path>
                    <path d="M29.8,7.7 C22.5,4.5 13.9,7.9 10.7,15.2 C8.8,19.5 9.2,24.2 11.3,28" id="Shape"></path>
                    <path d="M29.8,7.7 C24,5.2 16.7,9.1 13.5,16.4 C11.8,20.4 11.6,24.6 12.8,28" id="Shape"></path>
                    <path d="M33.3,28 C33.8,27.2 34.2,26.4 34.6,25.6 C37.8,18.3 35.7,10.2 29.8,7.7" id="Shape"></path>
                    <path d="M27.6,28 C28.5,26.7 29.3,25.2 30,23.6 C33.2,16.3 33.1,9.1 29.8,7.7" id="Shape"></path>
                    <path d="M15.7,28 C15.8,25.2 16.5,21.8 18,18.4 C21.2,11.1 26.5,6.3 29.7,7.7" id="Shape"></path>
                    <rect id="Rectangle-path" x="0" y="0" width="48" height="32"></rect>
                </g>
            </g>
        </g>
    </g>
</svg>