<?xml version="1.0" ?><svg enable-background="new 0 0 32 32" version="1.1" viewBox="0 0 32 32" xml:space="preserve" xmlns="http://www.w3.org/2000/svg" xmlns:xlink="http://www.w3.org/1999/xlink"><g id="FLAT"><g><rect fill="#C9C9C9" height="5.16" width="5" x="13.5" y="22.983"/></g><g><rect fill="#FFFFFF" height="17.875" width="29.292" x="1.354" y="4.292"/></g><g><g><path d="M30,4.854v16.833H2V4.854H30 M30.5,2.854h-29c-0.825,0-1.5,0.675-1.5,1.5v17.833     c0,0.825,0.675,1.5,1.5,1.5h29c0.825,0,1.5-0.675,1.5-1.5V4.354C32,3.529,31.325,2.854,30.5,2.854L30.5,2.854z" fill="#D8D8D8"/></g></g><g><rect fill="#D8D8D8" height="2" width="14.125" x="8.937" y="27.146"/></g><g><polygon fill="#939393" points="13.5,23.688 17.672,23.688 13.5,25.547   "/></g><g><rect fill="#FF3D2E" height="1" width="8" x="10.625" y="7.393"/></g><g><rect fill="#14C18B" height="1" width="8" x="13.375" y="9.768"/></g><g><rect fill="#FF3D2E" height="1" width="8" x="10.625" y="12.768"/></g><g><rect fill="#14C18B" height="1" width="8" x="13.375" y="15.143"/></g><g><rect fill="#FF3D2E" height="1" width="8" x="10.625" y="18.143"/></g></g></svg>