<?xml version="1.0" encoding="UTF-8"?>
<svg width="50px" height="54px" viewBox="0 0 50 54" version="1.1" xmlns="http://www.w3.org/2000/svg" xmlns:xlink="http://www.w3.org/1999/xlink">
    <!-- Generator: Sketch 45 (43475) - http://www.bohemiancoding.com/sketch -->
    <title>hat</title>
    <desc>Created with Sketch.</desc>
    <defs></defs>
    <g id="Page-1" stroke="none" stroke-width="1" fill="none" fill-rule="evenodd" stroke-linejoin="round">
        <g id="Desktop-HD" transform="translate(-695.000000, -485.000000)" stroke-width="2" stroke="#ffffff">
            <g id="hat" transform="translate(696.000000, 486.000000)">
                <g id="Group">
                    <path d="M8.9,27.7 C8.9,29.1 9,30.6 9,32 C9,34.8 15.7,37 24,37 C32.3,37 39,34.8 39,32 C39,30.6 39,29.1 39.1,27.7 C29.3,30.8 18.7,30.8 8.9,27.7 Z" id="Shape"></path>
                    <path d="M35.7,16.3 C36,12.4 36.5,8.5 37,4.6" id="Shape" stroke-linecap="round"></path>
                    <path d="M35.1,25 C35.2,23.6 35.2,22.2 35.3,20.8" id="Shape" stroke-linecap="round"></path>
                    <path d="M39.1,27.7 C39.3,18.7 40.2,9.8 41.6,1.2 C29.9,-0.3 18.1,-0.3 6.4,1.2 C7.9,9.9 8.7,18.7 8.9,27.7" id="Shape"></path>
                    <path d="M31,32.9 C34.6,32.3 37.5,31.2 39,29.8" id="Shape"></path>
                    <path d="M9,29.8 C10,30.7 11.7,31.5 13.8,32.1" id="Shape"></path>
                    <path d="M8.9,25.6 C2.8,22.9 -2.2,31.1 3.2,35.2 C5.9,37.2 9,38.9 12.3,40 C16,41.3 19.9,42 24,42 C28.1,42 32,41.3 35.7,40 C39.1,38.8 42.1,37.2 44.8,35.2 C49.3,31.9 46.6,25.7 42.1,25.1" id="Shape"></path>
                </g>
                <path d="M34,44 C35.8,44 37.3,45.6 37,47.5 C36.7,49 35.3,50 33.7,50 C30.9,49.9 28.3,48.8 26.4,47 C26,46.6 25.3,46.6 24.9,47.1 L24.9,47.1 C24.4,47.7 23.4,47.7 22.9,47.1 L22.9,47.1 C22.5,46.6 21.9,46.6 21.4,47 C19.5,48.8 16.9,49.9 14.1,50 C12.6,50 11.1,49 10.9,47.5 C10.6,45.6 12,44 13.9,44" id="Shape"></path>
                <path d="M37,47 C37,49.8 34.8,52 32,52 C29.2,52 26.7,51.1 24.6,49.7 C24.2,49.5 23.8,49.5 23.4,49.7 C21.3,51.1 18.8,52 16,52 C13.2,52 11,49.8 11,47" id="Shape"></path>
            </g>
        </g>
    </g>
</svg>